<svg height="50" width="50" xmlns="http://www.w3.org/2000/svg"><path d="M50 45.233A4.767 4.767 0 0145.233 50H4.767A4.767 4.767 0 010 45.233V4.767A4.767 4.767 0 014.767 0h40.466A4.767 4.767 0 0150 4.767v40.466z" fill="#2899C0"/><path d="M50 45.233l-.009-12.943-17.067-17.069-8.782 7.713-7.066 11.844L32.29 49.991 45.233 50A4.767 4.767 0 0050 45.233z" opacity=".2"/><g fill="#FFF"><path d="M15.221 18.964a1.336 1.336 0 010-1.888l1.854-1.854a1.336 1.336 0 011.888 0l15.814 15.814a1.336 1.336 0 010 1.888l-1.854 1.854a1.336 1.336 0 01-1.888 0L15.221 18.964z"/><path d="M31.036 15.221a1.336 1.336 0 011.888 0l1.854 1.854a1.336 1.336 0 010 1.888L18.964 34.779a1.336 1.336 0 01-1.888 0l-1.854-1.854a1.336 1.336 0 010-1.888l15.814-15.816z"/></g></svg>